<svg xmlns="http://www.w3.org/2000/svg" xmlns:xlink="http://www.w3.org/1999/xlink" viewBox="0,0,256,256" width="48px" height="48px" fill-rule="nonzero"><g fill="#ffffff" fill-rule="nonzero" stroke="none" stroke-width="1" stroke-linecap="butt" stroke-linejoin="miter" stroke-miterlimit="10" stroke-dasharray="" stroke-dashoffset="0" font-family="none" font-weight="none" font-size="none" text-anchor="none" style="mix-blend-mode: normal"><g transform="scale(5.33333,5.33333)"><path d="M47.039,43.692c-1.443,0 -2.443,-0.84 -3.325,-1.581c-0.784,-0.659 -1.462,-1.229 -2.359,-1.229c-0.897,0 -1.575,0.569 -2.359,1.229c-0.882,0.741 -1.882,1.581 -3.325,1.581c-1.443,0 -2.443,-0.84 -3.325,-1.58c-0.785,-0.66 -1.463,-1.229 -2.36,-1.229c-0.897,0 -1.575,0.569 -2.359,1.229c-0.882,0.741 -1.882,1.581 -3.325,1.581c-1.444,0 -2.443,-0.84 -3.325,-1.581c-0.785,-0.659 -1.463,-1.229 -2.36,-1.229c-0.897,0 -1.575,0.569 -2.36,1.229c-0.881,0.74 -1.881,1.58 -3.324,1.58c-2.154,-0.253 -3.481,-1.312 -4.548,-2.162c-0.735,-0.586 -1.315,-1.049 -1.873,-1.049c-1.057,0 -1.872,0.873 -2.659,1.717c-0.716,0.769 -1.393,1.494 -2.29,1.494c-0.414,0 -0.75,-0.336 -0.75,-0.75c0,-0.414 0.336,-0.75 0.75,-0.75c0.245,0 0.793,-0.588 1.193,-1.017c0.912,-0.978 2.046,-2.194 3.756,-2.194c1.082,0 1.92,0.669 2.808,1.376c0.966,0.771 2.061,1.644 3.703,1.84c0.808,-0.005 1.485,-0.574 2.27,-1.233c0.882,-0.741 1.881,-1.581 3.325,-1.581c1.444,0 2.443,0.84 3.325,1.581c0.785,0.659 1.463,1.229 2.36,1.229c0.897,0 1.575,-0.569 2.359,-1.229c0.882,-0.741 1.882,-1.581 3.325,-1.581c1.443,0 2.443,0.84 3.325,1.58c0.785,0.66 1.463,1.229 2.36,1.229c0.897,0 1.575,-0.569 2.359,-1.229c0.882,-0.741 1.882,-1.581 3.325,-1.581c1.443,0 2.443,0.84 3.325,1.581c0.784,0.659 1.462,1.229 2.359,1.229c0.414,0 0.75,0.336 0.75,0.75c0,0.414 -0.337,0.75 -0.751,0.75z"></path><path d="M32.94,41.408c-0.282,0 -0.554,-0.16 -0.681,-0.435c-0.174,-0.375 -0.011,-0.821 0.365,-0.996c2.794,-1.297 6.224,-3.021 9.195,-5.288l-35.815,2.206l1.276,2.43c0.194,0.366 0.056,0.82 -0.31,1.015c-0.365,0.192 -0.82,0.056 -1.014,-0.31l-1.817,-3.465c-0.118,-0.226 -0.113,-0.495 0.011,-0.716c0.125,-0.222 0.354,-0.365 0.607,-0.381l39.259,-2.417c0.329,-0.02 0.613,0.165 0.736,0.457c0.124,0.293 0.05,0.633 -0.186,0.847c-3.446,3.135 -7.854,5.379 -11.312,6.984c-0.1,0.047 -0.207,0.069 -0.314,0.069z"></path><path d="M39.615,32.312c-0.093,0 -0.186,-0.017 -0.274,-0.052l-0.501,-0.2c-1.495,-0.604 -2.577,-1.04 -4.563,-0.533c-0.4,0.104 -0.8,-0.134 -0.909,-0.527c-2.73,-9.937 -7.267,-17.154 -13.48,-21.452c-0.304,-0.211 -0.409,-0.611 -0.248,-0.944c0.161,-0.332 0.54,-0.5 0.894,-0.39c6.699,2.049 16.479,12.054 19.801,23.134c0.082,0.275 0,0.573 -0.211,0.768c-0.142,0.128 -0.324,0.196 -0.509,0.196zM35.89,29.806c0.955,0 1.753,0.204 2.517,0.478c-2.521,-7.086 -7.616,-13.548 -12.52,-17.377c3.795,4.289 6.721,9.982 8.735,17.013c0.455,-0.08 0.875,-0.114 1.268,-0.114z"></path><path d="M7.667,33.87c-0.208,0 -0.414,-0.086 -0.56,-0.251c-0.242,-0.271 -0.255,-0.677 -0.03,-0.963c8.649,-10.993 2.955,-23.302 0.106,-28.084c-0.167,-0.279 -0.134,-0.633 0.08,-0.878c0.214,-0.244 0.562,-0.323 0.86,-0.195c7.997,3.42 20.723,13.733 23.01,28.126c0.043,0.268 -0.062,0.536 -0.273,0.705c-0.211,0.168 -0.495,0.211 -0.747,0.108c-7.99,-3.223 -15.408,-2.778 -22.052,1.32c-0.122,0.076 -0.258,0.112 -0.394,0.112zM9.615,5.875c2.802,5.49 6.177,15.501 0.432,25.113c5.973,-2.76 12.471,-2.904 19.368,-0.421c-2.48,-11.949 -12.42,-20.802 -19.8,-24.692z"></path></g></g></svg>